<svg xmlns="http://www.w3.org/2000/svg" width="74" height="53.334" viewBox="0 0 74 53.334"><defs><style>.a{fill:#f9f9f9;}</style></defs><g transform="translate(-634.454 -112)"><path class="a" d="M857.542,112a12.292,12.292,0,1,0,12.292,12.292A12.292,12.292,0,0,0,857.542,112Zm0,11.2a4.363,4.363,0,0,1,1.093,8.588v1.248a1.093,1.093,0,1,1-2.186,0v-1.248a4.371,4.371,0,0,1-3.279-4.216,1.093,1.093,0,0,1,2.186,0,2.185,2.185,0,1,0,2.186-2.186,4.363,4.363,0,0,1-1.093-8.588V115.55a1.093,1.093,0,1,1,2.186,0V116.8a4.372,4.372,0,0,1,3.279,4.216,1.093,1.093,0,0,1-2.186,0,2.186,2.186,0,1,0-2.186,2.186Z" transform="translate(-174.807)"/><path class="a" d="M634.454,291.71h10.927V264.394H634.454Z" transform="translate(0 -126.376)"/><path class="a" d="M770.932,249.653a4.1,4.1,0,0,0-5.586-1.5l-16.63,9.6a4.571,4.571,0,0,1-.151,1.615,5.625,5.625,0,0,1-.489,1.224,5.443,5.443,0,0,1-4.782,2.776,5.538,5.538,0,0,1-1.5-.208L729.7,259.748a.359.359,0,0,1-.248-.443h0a.665.665,0,0,1,.821-.46l11.792,3.326a4.455,4.455,0,0,0,5.108-2.073,4.6,4.6,0,0,0,.4-1,3.28,3.28,0,0,0-.373-2.712,4.075,4.075,0,0,0-2.023-1.267l-.008,0-18.159-4.865a10.926,10.926,0,0,0-8.133,1l-8.428,4.682V270.96l.9.9a10.927,10.927,0,0,0,7.726,3.2h13.059a10.927,10.927,0,0,0,5.422-1.44l31.885-18.365a4.089,4.089,0,0,0,2.035-3.551A4.152,4.152,0,0,0,770.932,249.653Z" transform="translate(-63.025 -112.455)"/></g></svg>