<svg xmlns="http://www.w3.org/2000/svg" width="74" height="65.461" viewBox="0 0 74 65.461"><defs><style>.a{fill:#f9f9f9;}</style></defs><g transform="translate(0 -29.539)"><g transform="translate(0 48.75)"><g transform="translate(0 0)"><path class="a" d="M64.039,193.769a6.4,6.4,0,0,1-5.277-2.776l-3.134-4.558a21.358,21.358,0,0,1-39.868-8.32h2.029a2.135,2.135,0,0,0,1.759-3.344l-3.112-4.526-4.715-6.859a2.135,2.135,0,0,0-3.518,0L.376,174.771a2.135,2.135,0,0,0,1.759,3.344h2.2a32.732,32.732,0,0,0,55.807,21.01,32.953,32.953,0,0,0,4.348-5.373C64.342,193.762,64.191,193.769,64.039,193.769Z" transform="translate(0 -162.461)"/></g></g><g transform="translate(29.986 48.751)"><g transform="translate(0 0)"><path class="a" d="M216.113,173.847h-3.253a1.119,1.119,0,0,1-1.118-1.118V171.1a1.119,1.119,0,0,1,1.118-1.118h3.253a1.119,1.119,0,0,1,1.118,1.118,2.135,2.135,0,0,0,4.269,0,5.394,5.394,0,0,0-4.879-5.363V164.6a2.135,2.135,0,1,0-4.269,0v1.143a5.394,5.394,0,0,0-4.879,5.363v1.626a5.393,5.393,0,0,0,5.387,5.387h3.253a1.119,1.119,0,0,1,1.118,1.118v1.626a1.119,1.119,0,0,1-1.118,1.118H212.86a1.119,1.119,0,0,1-1.118-1.118,2.135,2.135,0,1,0-4.269,0,5.394,5.394,0,0,0,4.879,5.363v1.143a2.135,2.135,0,1,0,4.269,0v-1.143a5.394,5.394,0,0,0,4.879-5.363v-1.626A5.393,5.393,0,0,0,216.113,173.847Z" transform="translate(-207.473 -162.463)"/></g></g><g transform="translate(9.508 29.539)"><path class="a" d="M130.031,61.276a2.135,2.135,0,0,0-1.889-1.141h-2.2A32.732,32.732,0,0,0,70.132,39.126,32.953,32.953,0,0,0,65.784,44.5c.15-.011.3-.018.454-.018a6.4,6.4,0,0,1,5.277,2.776l3.134,4.558a21.358,21.358,0,0,1,39.868,8.32h-2.029a2.135,2.135,0,0,0-1.759,3.344l3.112,4.526,4.715,6.859a2.135,2.135,0,0,0,3.518,0l2.826-4.111,5-7.274A2.135,2.135,0,0,0,130.031,61.276Z" transform="translate(-65.784 -29.539)"/></g></g></svg>