<svg xmlns="http://www.w3.org/2000/svg" width="70" height="70" viewBox="0 0 70 70"><defs><style>.a{fill:#e8e8e8;}.b,.d{fill:none;}.b{stroke:#f9f9f9;stroke-width:7px;}.c{stroke:none;}</style></defs><g transform="translate(-1199.053 -2664.053)"><path class="a" d="M33.481,12.294,22.908,10.678,18.169.584a1.119,1.119,0,0,0-1.945,0L11.486,10.678.913,12.294a1.074,1.074,0,0,0-.606,1.813L7.988,21.98,6.172,33.11a1.076,1.076,0,0,0,1.581,1.113L17.2,29l9.444,5.221a1.076,1.076,0,0,0,1.581-1.114L26.406,21.981l7.681-7.873a1.076,1.076,0,0,0-.606-1.814Z" transform="translate(1217.027 2681.007)"/><g class="b" transform="translate(1199.053 2664.053)"><circle class="c" cx="35" cy="35" r="35"/><circle class="d" cx="35" cy="35" r="31.5"/></g></g></svg>