<svg xmlns="http://www.w3.org/2000/svg" width="70.106" height="70.106" viewBox="0 0 70.106 70.106"><defs><style>.a{fill:#f9f9f9;}</style></defs><path class="a" d="M35.053,0A35.053,35.053,0,1,0,70.106,35.053,35.053,35.053,0,0,0,35.053,0ZM9.925,28.291a1.848,1.848,0,0,1-.53-3.618l14.78-4.434a1.848,1.848,0,1,1,1.063,3.539l-14.78,4.434A1.841,1.841,0,0,1,9.925,28.291Zm1.517,6.7a1.848,1.848,0,0,1,2.881-2.315,5.545,5.545,0,0,0,8.943,0,1.848,1.848,0,0,1,2.881,2.315,9.459,9.459,0,0,1-7.353,3.646A9.458,9.458,0,0,1,11.442,34.991Zm35.9,12.1c-.005.012-.011.025-.016.037-.057.14-.119.279-.183.417l-.015.031c-1.827,3.848-6.533,6.591-12.063,6.591-5.76,0-10.628-2.975-12.278-7.076-.125-.311.165-.611.55-.628a.8.8,0,0,1,.17.011,69.79,69.79,0,0,0,11.558.938c1.366,0,2.709-.041,4.029-.113q.583-.032,1.159-.073c.748-.053,1.49-.114,2.219-.189q2.137-.221,4.151-.562a.8.8,0,0,1,.17-.011C47.182,46.483,47.472,46.783,47.347,47.094Zm11.323-12.1a9.237,9.237,0,0,1-14.705,0,1.848,1.848,0,0,1,2.881-2.315,5.545,5.545,0,0,0,8.943,0,1.848,1.848,0,0,1,2.881,2.315Zm1.511-6.7a1.841,1.841,0,0,1-.533-.079l-14.78-4.434A1.848,1.848,0,1,1,45.93,20.24l14.78,4.434a1.848,1.848,0,0,1-.53,3.618Z"/></svg>